<svg xmlns="http://www.w3.org/2000/svg" xmlns:xlink="http://www.w3.org/1999/xlink" viewBox="0,0,256,256" width="24px" height="24px"><g fill="#ffffff" fill-rule="nonzero" stroke="none" stroke-width="1" stroke-linecap="butt" stroke-linejoin="miter" stroke-miterlimit="10" stroke-dasharray="" stroke-dashoffset="0" font-family="none" font-weight="none" font-size="none" text-anchor="none" style="mix-blend-mode: normal"><g transform="scale(5.12,5.12)"><path d="M5,5c-1.64453,0 -3,1.35547 -3,3v3h46v-3c0,-1.64453 -1.35547,-3 -3,-3zM7,8c0.55078,0 1,0.44922 1,1c0,0.55078 -0.44922,1 -1,1c-0.55078,0 -1,-0.44922 -1,-1c0,-0.55078 0.44922,-1 1,-1zM10,8c0.55078,0 1,0.44922 1,1c0,0.55078 -0.44922,1 -1,1c-0.55078,0 -1,-0.44922 -1,-1c0,-0.55078 0.44922,-1 1,-1zM2,13v14h46v-14zM2,29v13c0,1.64453 1.35547,3 3,3h19v-16zM26,29v16h19c1.64453,0 3,-1.35547 3,-3v-13zM6,31h15v2h-15zM6,35h15v2h-15zM6,39h9v2h-9z"></path></g></g></svg>